<?xml version="1.0" encoding="UTF-8" standalone="no"?>
<!DOCTYPE svg PUBLIC "-//W3C//DTD SVG 1.1//EN" "http://www.w3.org/Graphics/SVG/1.1/DTD/svg11.dtd">
<svg width="100%" height="100%" viewBox="0 0 655 155" version="1.1" xmlns="http://www.w3.org/2000/svg" xmlns:xlink="http://www.w3.org/1999/xlink" xml:space="preserve" xmlns:serif="http://www.serif.com/" style="fill-rule:evenodd;clip-rule:evenodd;stroke-linejoin:round;stroke-miterlimit:2;">
    <g transform="matrix(1.65354,0,0,1.65354,-202.479,-207.645)">
        <g transform="matrix(0.379582,0,0,0.379582,-108.919,42.0441)">
            <g transform="matrix(0.549338,0,0,0.549338,482.137,58.661)">
                <path d="M263.17,584.477C263.17,608.617 272.759,631.768 289.829,648.837C306.898,665.907 330.049,675.496 354.189,675.496L393.421,675.496C417.561,675.496 440.712,665.907 457.781,648.837C474.851,631.768 484.44,608.617 484.44,584.477L484.44,514.735C484.44,509.907 482.522,505.277 479.108,501.863C475.694,498.449 471.064,496.531 466.236,496.531L281.374,496.531C276.546,496.531 271.916,498.449 268.502,501.863C265.088,505.277 263.17,509.907 263.17,514.735L263.17,584.477Z" style="fill:white;"/>
            </g>
            <g transform="matrix(0.722729,0,0,0.722729,-4.77764,167.077)">
                <path d="M904.594,219.767L882.42,219.767C877.117,219.767 872.281,216.736 869.968,211.964C866.845,205.517 861.962,195.439 855.988,183.109C844.438,159.269 849.942,130.672 869.515,112.822C889.088,94.972 918.07,92.121 940.747,105.813C940.748,105.813 940.749,105.814 940.751,105.815C942.492,106.866 944.751,106.373 945.896,104.692C946.5,103.804 947.225,102.741 948.048,101.532C957.837,87.157 973.07,77.399 990.221,74.517C1007.37,71.635 1024.96,75.878 1038.91,86.264C1038.91,86.265 1038.91,86.266 1038.91,86.267C1069.6,109.116 1078.91,151.005 1060.79,184.703C1054.81,195.822 1049.34,205.993 1045.85,212.484C1043.44,216.97 1038.76,219.767 1033.66,219.767L1013.12,219.767L1033.05,179.411C1033.89,177.699 1033.19,175.623 1031.48,174.778C1029.76,173.932 1027.69,174.636 1026.84,176.348L1006.16,218.236C1005.92,218.729 1005.8,219.252 1005.8,219.767L980.924,219.767L987.718,164.465C987.95,162.57 986.601,160.842 984.706,160.61C982.811,160.377 981.084,161.726 980.851,163.621L974.005,219.346C973.988,219.487 973.979,219.628 973.979,219.767L911.716,219.767C911.716,219.39 911.654,219.007 911.524,218.631L901.765,190.579C901.138,188.776 899.165,187.821 897.362,188.449C895.559,189.076 894.604,191.049 895.231,192.852L904.594,219.767Z" style="fill:white;"/>
            </g>
        </g>
        <g transform="matrix(0.222852,0,0,0.222852,214.883,136.673)">
            <path d="M20.881,236.565C20.881,243.311 23.021,248.111 27.302,250.965C31.583,253.819 37.615,255.246 45.398,255.246C49.29,255.246 53.311,254.921 57.463,254.273C61.614,253.624 65.246,252.781 68.359,251.743C70.694,254.597 72.705,257.775 74.392,261.278C76.078,264.78 76.921,268.996 76.921,273.926C76.921,283.785 73.224,291.828 65.83,298.054C58.436,304.281 45.398,307.395 26.718,307.395C3.887,307.395 -13.691,302.206 -26.015,291.828C-38.338,281.45 -44.5,264.586 -44.5,241.235L-44.836,48.206C-41.982,47.428 -37.896,46.585 -32.578,45.677C-27.259,44.769 -21.616,44.315 -15.649,44.315C-4.233,44.315 4.653,46.325 11.01,50.347C17.366,54.368 20.544,62.865 20.544,75.837L20.881,104.506L71.862,104.506C73.419,107.36 74.911,110.928 76.337,115.209C77.764,119.49 78.478,124.224 78.478,129.413C78.478,138.494 76.467,145.045 72.446,149.067C68.424,153.088 63.041,155.099 56.295,155.099L20.881,155.099L20.881,236.565Z" style="fill:white;fill-rule:nonzero;"/>
            <path d="M192.505,307.784C177.198,307.784 162.993,305.643 149.891,301.362C136.789,297.082 125.373,290.66 115.644,282.098C105.915,273.537 98.261,262.77 92.683,249.797C87.105,236.825 84.315,221.647 84.315,204.264C84.315,187.141 87.105,172.417 92.683,160.093C98.261,147.769 105.59,137.651 114.671,129.738C123.752,121.825 134.129,115.987 145.805,112.225C157.48,108.463 169.414,106.582 181.608,106.582C195.359,106.582 207.877,108.658 219.163,112.809C230.449,116.96 240.179,122.668 248.351,129.932C256.524,137.197 262.88,145.888 267.421,156.007C271.961,166.125 274.231,177.152 274.231,189.086C274.231,197.908 271.766,204.653 266.837,209.323C261.907,213.993 255.032,216.977 246.211,218.274L150.085,232.674C152.939,241.235 158.777,247.657 167.598,251.938C176.419,256.218 186.538,258.359 197.954,258.359C208.591,258.359 218.645,256.997 228.114,254.273C237.584,251.548 245.303,248.37 251.27,244.738C255.421,247.332 258.924,250.965 261.778,255.635C264.632,260.305 266.059,265.234 266.059,270.423C266.059,282.098 260.61,290.79 249.713,296.498C241.411,300.908 232.071,303.892 221.693,305.449C211.315,307.005 201.586,307.784 192.505,307.784ZM181.608,154.839C175.382,154.839 169.998,155.877 165.458,157.953C160.917,160.028 157.22,162.688 154.366,165.931C151.512,169.174 149.372,172.806 147.945,176.827C146.518,180.849 145.675,184.935 145.415,189.086L211.964,178.19C211.185,173.001 208.332,167.812 203.402,162.623C198.472,157.434 191.208,154.839 181.608,154.839Z" style="fill:white;fill-rule:nonzero;"/>
            <path d="M282.404,206.988C282.404,189.865 284.998,175.011 290.187,162.428C295.376,149.845 302.576,139.402 311.786,131.1C320.997,122.797 331.764,116.636 344.088,112.614C356.411,108.593 369.708,106.582 383.978,106.582C389.167,106.582 394.226,107.036 399.155,107.944C404.085,108.852 408.106,109.955 411.22,111.252L411.22,48.206C413.814,47.428 417.965,46.585 423.673,45.677C429.381,44.769 435.219,44.315 441.186,44.315C446.894,44.315 452.018,44.704 456.558,45.482C461.098,46.26 464.925,47.817 468.039,50.152C471.152,52.487 473.487,55.665 475.044,59.687C476.6,63.708 477.379,68.962 477.379,75.448L477.379,259.916C477.379,272.11 471.671,281.839 460.255,289.103C452.731,294.033 443.002,298.379 431.067,302.141C419.133,305.903 405.382,307.784 389.815,307.784C372.951,307.784 357.838,305.449 344.477,300.779C331.115,296.109 319.829,289.363 310.619,280.542C301.408,271.72 294.403,261.148 289.604,248.824C284.804,236.5 282.404,222.555 282.404,206.988ZM392.929,158.342C378.918,158.342 368.151,162.363 360.627,170.406C353.103,178.449 349.341,190.643 349.341,206.988C349.341,223.074 352.844,235.203 359.849,243.376C366.854,251.548 376.973,255.635 390.204,255.635C394.874,255.635 399.09,254.921 402.852,253.494C406.614,252.067 409.533,250.446 411.609,248.63L411.609,163.012C406.42,159.899 400.193,158.342 392.929,158.342Z" style="fill:white;fill-rule:nonzero;"/>
            <path d="M501.507,79.34C501.507,69.481 504.815,61.179 511.431,54.433C518.047,47.687 526.804,44.315 537.7,44.315C548.597,44.315 557.354,47.687 563.97,54.433C570.585,61.179 573.893,69.481 573.893,79.34C573.893,89.199 570.585,97.501 563.97,104.247C557.354,110.993 548.597,114.365 537.7,114.365C526.804,114.365 518.047,110.993 511.431,104.247C504.815,97.501 501.507,89.199 501.507,79.34ZM570.78,301.168C567.926,301.687 563.71,302.4 558.132,303.308C552.554,304.216 546.911,304.67 541.203,304.67C535.495,304.67 530.371,304.281 525.831,303.503C521.29,302.724 517.464,301.168 514.35,298.833C511.237,296.498 508.837,293.32 507.15,289.298C505.464,285.277 504.621,280.023 504.621,273.537L504.621,134.602C507.475,134.083 511.691,133.37 517.269,132.462C522.847,131.554 528.49,131.1 534.198,131.1C539.906,131.1 545.03,131.489 549.57,132.267C554.111,133.046 557.937,134.602 561.051,136.937C564.164,139.272 566.564,142.451 568.25,146.472C569.937,150.494 570.78,155.747 570.78,162.234L570.78,301.168Z" style="fill:white;fill-rule:nonzero;"/>
            <path d="M756.804,245.127C756.804,264.845 749.41,280.282 734.621,291.439C719.833,302.595 698.039,308.173 669.24,308.173C658.344,308.173 648.225,307.395 638.885,305.838C629.545,304.281 621.567,301.881 614.951,298.638C608.335,295.395 603.146,291.309 599.384,286.379C595.622,281.45 593.741,275.612 593.741,268.867C593.741,262.64 595.038,257.386 597.633,253.105C600.227,248.824 603.341,245.257 606.973,242.403C614.497,246.554 623.124,250.251 632.853,253.494C642.582,256.737 653.803,258.359 666.516,258.359C674.559,258.359 680.721,257.191 685.002,254.856C689.283,252.521 691.423,249.408 691.423,245.516C691.423,241.884 689.867,239.03 686.753,236.954C683.64,234.879 678.451,233.192 671.186,231.895L659.511,229.56C636.939,225.15 620.14,218.209 609.113,208.74C598.087,199.27 592.574,185.714 592.574,168.071C592.574,158.472 594.649,149.78 598.8,141.997C602.952,134.213 608.789,127.727 616.313,122.538C623.837,117.349 632.853,113.328 643.361,110.474C653.868,107.62 665.478,106.193 678.191,106.193C687.791,106.193 696.807,106.906 705.239,108.333C713.671,109.76 721,111.901 727.227,114.755C733.454,117.609 738.383,121.306 742.016,125.846C745.648,130.386 747.464,135.77 747.464,141.997C747.464,147.964 746.361,153.088 744.156,157.369C741.951,161.65 739.162,165.217 735.789,168.071C733.713,166.774 730.6,165.412 726.449,163.985C722.298,162.558 717.757,161.261 712.828,160.093C707.898,158.926 702.904,157.953 697.845,157.174C692.785,156.396 688.18,156.007 684.029,156.007C675.467,156.007 668.851,156.98 664.181,158.926C659.511,160.871 657.176,163.92 657.176,168.071C657.176,170.925 658.473,173.26 661.068,175.076C663.662,176.892 668.592,178.579 675.856,180.135L687.921,182.86C712.828,188.567 730.535,196.416 741.043,206.405C751.55,216.393 756.804,229.301 756.804,245.127Z" style="fill:white;fill-rule:nonzero;"/>
            <path d="M796.889,253.3C794.035,246.814 790.986,239.549 787.743,231.506C784.5,223.463 781.127,214.253 777.625,203.875C774.122,193.497 770.49,181.627 766.728,168.266C762.966,154.904 759.009,139.532 754.858,122.149C758.49,118.517 763.355,115.338 769.452,112.614C775.549,109.89 782.23,108.528 789.494,108.528C798.575,108.528 806.099,110.409 812.066,114.171C818.034,117.933 822.444,125.003 825.298,135.381L856.043,242.403L857.6,242.403C860.713,233.582 863.761,223.982 866.745,213.604C869.729,203.226 872.647,192.524 875.501,181.498C878.355,170.471 881.015,159.444 883.479,148.418C885.944,137.391 888.085,126.559 889.901,115.922C899.241,110.993 909.489,108.528 920.645,108.528C929.726,108.528 937.25,110.474 943.217,114.365C949.185,118.257 952.168,125.003 952.168,134.602C952.168,141.607 951.26,149.715 949.444,158.926C947.628,168.136 945.228,177.93 942.244,188.308C939.261,198.686 935.758,209.388 931.737,220.415C927.715,231.441 923.499,242.273 919.089,252.911C914.678,263.548 910.138,273.601 905.468,283.071C900.798,292.541 896.257,301.038 891.847,308.562C884.582,321.275 877.836,331.653 871.61,339.696C865.383,347.739 859.416,354.03 853.708,358.571C848,363.111 842.292,366.224 836.584,367.911C830.876,369.597 824.909,370.44 818.682,370.44C807.786,370.44 798.964,367.197 792.219,360.711C785.473,354.225 781.452,345.793 780.154,335.415C788.457,328.929 796.759,321.729 805.061,313.816C813.364,305.903 820.888,297.795 827.633,289.493C823.223,288.195 818.488,285.147 813.429,280.347C808.369,275.547 802.856,266.532 796.889,253.3Z" style="fill:white;fill-rule:nonzero;"/>
            <path d="M1159.99,206.988C1159.99,223.074 1157.52,237.409 1152.59,249.992C1147.66,262.575 1140.72,273.147 1131.77,281.709C1122.82,290.271 1112.12,296.757 1099.66,301.168C1087.21,305.578 1073.33,307.784 1058.02,307.784C1042.71,307.784 1028.84,305.449 1016.38,300.779C1003.93,296.109 993.226,289.428 984.275,280.736C975.324,272.045 968.384,261.472 963.454,249.019C958.525,236.565 956.06,222.555 956.06,206.988C956.06,191.681 958.525,177.8 963.454,165.347C968.384,152.893 975.324,142.321 984.275,133.629C993.226,124.938 1003.93,118.257 1016.38,113.587C1028.84,108.917 1042.71,106.582 1058.02,106.582C1073.33,106.582 1087.21,108.982 1099.66,113.782C1112.12,118.581 1122.82,125.327 1131.77,134.019C1140.72,142.71 1147.66,153.283 1152.59,165.736C1157.52,178.19 1159.99,191.94 1159.99,206.988ZM1023.78,206.988C1023.78,222.815 1026.82,234.944 1032.92,243.376C1039.02,251.808 1047.52,256.024 1058.41,256.024C1069.31,256.024 1077.68,251.743 1083.51,243.181C1089.35,234.619 1092.27,222.555 1092.27,206.988C1092.27,191.421 1089.29,179.422 1083.32,170.99C1077.35,162.558 1068.92,158.342 1058.02,158.342C1047.13,158.342 1038.69,162.558 1032.73,170.99C1026.76,179.422 1023.78,191.421 1023.78,206.988Z" style="fill:white;fill-rule:nonzero;"/>
            <path d="M1296.59,181.692C1296.59,173.649 1294.32,167.747 1289.78,163.985C1285.23,160.223 1279.07,158.342 1271.29,158.342C1266.1,158.342 1260.98,158.99 1255.92,160.288C1250.86,161.585 1246.51,163.531 1242.88,166.125L1242.88,301.168C1240.29,301.946 1236.2,302.724 1230.62,303.503C1225.04,304.281 1219.27,304.67 1213.3,304.67C1207.6,304.67 1202.47,304.281 1197.93,303.503C1193.39,302.724 1189.56,301.168 1186.45,298.833C1183.34,296.498 1180.94,293.32 1179.25,289.298C1177.56,285.277 1176.72,280.023 1176.72,273.537L1176.72,156.785C1176.72,149.78 1178.21,144.072 1181.2,139.662C1184.18,135.251 1188.27,131.23 1193.45,127.597C1202.28,121.371 1213.37,116.311 1226.73,112.42C1240.09,108.528 1254.94,106.582 1271.29,106.582C1300.61,106.582 1323.18,113.003 1339.01,125.846C1354.83,138.689 1362.74,156.526 1362.74,179.357L1362.74,301.168C1360.15,301.946 1356.06,302.724 1350.49,303.503C1344.91,304.281 1339.13,304.67 1333.17,304.67C1327.46,304.67 1322.34,304.281 1317.8,303.503C1313.26,302.724 1309.43,301.168 1306.31,298.833C1303.2,296.498 1300.8,293.32 1299.12,289.298C1297.43,285.277 1296.59,280.023 1296.59,273.537L1296.59,181.692Z" style="fill:white;fill-rule:nonzero;"/>
        </g>
    </g>
</svg>
